<?xml version="1.0" encoding="UTF-8"?>
<svg width="386" height="100" version="1.1" viewBox="0 0 102.13 26.458" xmlns="http://www.w3.org/2000/svg" xmlns:cc="http://creativecommons.org/ns#" xmlns:dc="http://purl.org/dc/elements/1.1/" xmlns:osb="http://www.openswatchbook.org/uri/2009/osb" xmlns:rdf="http://www.w3.org/1999/02/22-rdf-syntax-ns#" xmlns:xlink="http://www.w3.org/1999/xlink">
 <defs>
  <filter id="filter3811" color-interpolation-filters="sRGB">
   <feFlood flood-color="rgb(0,0,0)" result="flood"/>
   <feComposite in="flood" in2="SourceGraphic" operator="in" result="composite1"/>
   <feGaussianBlur in="composite1" result="blur"/>
   <feOffset dx="0.5" dy="0.5" result="offset"/>
   <feComposite in="SourceGraphic" in2="offset" result="composite2"/>
  </filter>
 </defs>
 <metadata>
  <rdf:RDF>
   <cc:Work rdf:about="">
    <dc:format>image/svg+xml</dc:format>
    <dc:type rdf:resource="http://purl.org/dc/dcmitype/StillImage"/>
    <dc:title/>
   </cc:Work>
  </rdf:RDF>
 </metadata>
 <g transform="translate(7.9341 2.2977)" fill="#fffffd" filter="url(#filter3811)" stroke="#000" stroke-linejoin="round" stroke-width=".52917" style="shape-inside:url(#rect3521);white-space:pre" aria-label="SAMY DJEMAÃ">
  <path d="m4.9323 19.298q-1.0096 0-1.851-0.50482-0.82268-0.52352-1.3275-1.3649-0.48613-0.86007-0.48613-1.8884v-0.86007q0-0.09349 0.093486-0.09349h2.0941q0.074789 0 0.074789 0.09349v0.86007q0 0.61701 0.41134 1.0657 0.41134 0.43004 0.99095 0.43004 0.57961 0 0.99095-0.44873t0.41134-1.047q0-0.6918-0.89747-1.1966-0.29916-0.16828-0.93486-0.52352t-1.1966-0.6731q-1.0283-0.59831-1.5332-1.4958-0.48613-0.91616-0.48613-2.0567 0-1.047 0.50482-1.8697 0.50482-0.84137 1.3275-1.3275 0.84137-0.48613 1.8136-0.48613 0.99095 0 1.8136 0.50482 0.84137 0.48613 1.3275 1.3275 0.50482 0.82268 0.50482 1.851v1.5332q0 0.07479-0.074789 0.07479h-2.0941q-0.074789 0-0.074789-0.07479l-0.018697-1.5332q0-0.6544-0.41134-1.0657t-0.97225-0.41134q-0.57961 0-0.99095 0.44873-0.41134 0.43004-0.41134 1.0283 0 0.61701 0.26176 1.0283 0.26176 0.41134 0.95356 0.78528 0.093486 0.05609 0.35525 0.20567 0.28046 0.13088 0.59831 0.31785 0.31785 0.16828 0.56092 0.29916 0.26176 0.13088 0.31785 0.16828 0.93486 0.52352 1.4771 1.2901 0.54222 0.74789 0.54222 1.851 0 1.0657-0.50482 1.9258-0.48613 0.84137-1.3275 1.3462-0.82268 0.48613-1.8323 0.48613z"/>
  <path d="m8.896 19.018 2.3185-12.845q0.0187-0.074789 0.09349-0.074789h2.7111q0.07479 0 0.09349 0.074789l2.225 12.845q0.0187 0.09349-0.07479 0.09349h-2.0754q-0.07479 0-0.09349-0.09349l-0.20567-1.3649h-2.5428l-0.20567 1.3649q-0.0187 0.09349-0.09349 0.09349h-2.0754q-0.074789 0-0.074789-0.09349zm2.8233-3.3655h1.7949l-0.76659-5.2539-0.11218-0.6918-0.074789 0.6918z"/>
  <path d="m17.59 19.111q-0.07479 0-0.07479-0.09349l0.0374-12.845q0-0.074789 0.07479-0.074789h2.2811q0.07479 0 0.13088 0.074789l1.7014 2.468 1.7014-2.468q0.05609-0.074789 0.13088-0.074789h2.2998q0.07479 0 0.07479 0.074789l0.03739 12.845q0 0.09349-0.07479 0.09349h-2.1128q-0.07479 0-0.07479-0.09349l-0.0187-9.5356-1.9632 2.842-1.9445-2.842-0.0187 9.5356q0 0.09349-0.07479 0.09349z"/>
  <path d="m29.295 19.111q-0.05609 0-0.05609-0.07479l0.0187-5.31-2.5054-7.5537q-0.0187-0.074789 0.05609-0.074789h2.0754q0.09349 0 0.11218 0.074789l1.3836 5.0295 1.4023-5.0295q0.0187-0.074789 0.09349-0.074789h2.0941q0.07479 0 0.05609 0.074789l-2.5241 7.4789 0.0187 5.3848q0 0.07479-0.07479 0.07479z"/>
  <path d="m37.914 19.111q-0.09349 0-0.09349-0.09349l0.03739-12.845q0-0.074789 0.07479-0.074789l3.4964-0.018697q1.0283-0.018697 1.8697 0.48613 0.86007 0.50482 1.3649 1.3649 0.50482 0.84137 0.50482 1.8697v5.3661q0 1.0844-0.52352 1.9819-0.52352 0.87877-1.4023 1.4023-0.87877 0.52352-1.9819 0.54222zm2.1876-2.2998h1.1592q0.6918 0 1.1592-0.48613 0.48613-0.48613 0.48613-1.1592v-5.3848q0-0.59831-0.44873-1.0283-0.43004-0.44873-1.0283-0.43004l-1.3088 0.018697z"/>
  <path d="m49.712 19.298q-1.047 0-1.8884-0.48613-0.82268-0.50482-1.3088-1.3649-0.46743-0.87877-0.46743-1.9632v-0.86007q0-0.07479 0.07479-0.07479h2.1128q0.07479 0 0.07479 0.09349v0.84137q0 0.6918 0.39264 1.1218 0.39264 0.43004 1.0096 0.43004 0.56092 0 0.97226-0.46743 0.41134-0.46743 0.41134-1.0844v-9.2925q0-0.074789 0.07479-0.074789h2.0941q0.07479 0 0.07479 0.093486l0.0187 9.2738q0 1.0283-0.50482 1.9071-0.48613 0.86007-1.3088 1.3836-0.82268 0.52352-1.8323 0.52352z"/>
  <path d="m54.854 19.111q-0.07479 0-0.07479-0.09349l0.0187-12.845q0-0.074789 0.07479-0.074789h6.0018q0.07479 0 0.07479 0.093486v2.0941q0 0.074789-0.07479 0.074789h-3.8329v2.9168h3.8329q0.07479 0 0.07479 0.07479l0.0187 2.1128q0 0.07479-0.07479 0.07479h-3.8516v3.272h3.8516q0.07479 0 0.07479 0.09349v2.1315q0 0.07479-0.07479 0.07479z"/>
  <path d="m62.706 19.111q-0.07479 0-0.07479-0.09349l0.03739-12.845q0-0.074789 0.07479-0.074789h2.2811q0.07479 0 0.13088 0.074789l1.7014 2.468 1.7014-2.468q0.05609-0.074789 0.13088-0.074789h2.2998q0.07479 0 0.07479 0.074789l0.03739 12.845q0 0.09349-0.07479 0.09349h-2.1128q-0.07479 0-0.07479-0.09349l-0.0187-9.5356-1.9632 2.842-1.9445-2.842-0.0187 9.5356q0 0.09349-0.07479 0.09349z"/>
  <path d="m72.036 19.018 2.3185-12.845q0.0187-0.074789 0.09349-0.074789h2.7111q0.07479 0 0.09349 0.074789l2.225 12.845q0.0187 0.09349-0.07479 0.09349h-2.0754q-0.07479 0-0.09349-0.09349l-0.20567-1.3649h-2.5428l-0.20567 1.3649q-0.0187 0.09349-0.09349 0.09349h-2.0754q-0.07479 0-0.07479-0.09349zm2.8233-3.3655h1.7949l-0.76658-5.2539-0.11218-0.6918-0.074788 0.6918z"/>
  <path d="m80.805 19.111q-0.09349 0-0.09349-0.09349l0.0187-12.845q0-0.074789 0.07479-0.074789h2.0941q0.07479 0 0.07479 0.074789l0.0187 12.845q0 0.09349-0.07479 0.09349zm2.0006-14.285q-0.07479 0-0.07479-0.074789v-2.1128q0-0.074789 0.07479-0.074789h2.1128q0.07479 0 0.07479 0.074789v2.1128q0 0.074789-0.07479 0.074789zm-3.889 0q-0.07479 0-0.07479-0.074789v-2.1128q0-0.074789 0.07479-0.074789h2.1128q0.07479 0 0.07479 0.074789v2.1128q0 0.074789-0.07479 0.074789z"/>
 </g>
</svg>
